<?xml version="1.0" encoding="utf-8" standalone="no"?>
<!DOCTYPE svg PUBLIC "-//W3C//DTD SVG 1.1//EN"
  "http://www.w3.org/Graphics/SVG/1.1/DTD/svg11.dtd">
<svg xmlns:xlink="http://www.w3.org/1999/xlink" width="576pt" height="684pt" viewBox="0 0 576 684" xmlns="http://www.w3.org/2000/svg" version="1.1">
 <metadata>
  <rdf:RDF xmlns:dc="http://purl.org/dc/elements/1.1/" xmlns:cc="http://creativecommons.org/ns#" xmlns:rdf="http://www.w3.org/1999/02/22-rdf-syntax-ns#">
   <cc:Work>
    <dc:type rdf:resource="http://purl.org/dc/dcmitype/StillImage"/>
    <dc:date>2024-07-25T19:26:22.966521</dc:date>
    <dc:format>image/svg+xml</dc:format>
    <dc:creator>
     <cc:Agent>
      <dc:title>Matplotlib v3.9.0, https://matplotlib.org/</dc:title>
     </cc:Agent>
    </dc:creator>
   </cc:Work>
  </rdf:RDF>
 </metadata>
 <defs>
  <style type="text/css">*{stroke-linejoin: round; stroke-linecap: butt}</style>
 </defs>
 <g id="figure_1">
  <g id="patch_1">
   <path d="M 0 684 
L 576 684 
L 576 0 
L 0 0 
z
" style="fill: #ffffff"/>
  </g>
  <g id="axes_1">
   <g id="patch_2">
    <path d="M 174.4 636.28 
L 563.04 636.28 
L 563.04 12.96 
L 174.4 12.96 
z
" style="fill: #ffffff"/>
   </g>
   <g id="line2d_1">
    <path d="M 174.4 636.28 
L 174.4 12.96 
" clip-path="url(#p4fe5471366)" style="fill: none; stroke: #999999; stroke-width: 1.5; stroke-linecap: square"/>
   </g>
   <g id="patch_3">
    <path d="M 174.4 616.986762 
L 174.4 616.986762 
L 174.4 596.209429 
L 174.4 596.209429 
z
" clip-path="url(#p4fe5471366)" style="fill: #008bfb"/>
   </g>
   <g id="patch_4">
    <path d="M 174.4 587.304857 
L 174.4 587.304857 
L 174.4 566.527524 
L 174.4 566.527524 
z
" clip-path="url(#p4fe5471366)" style="fill: #008bfb"/>
   </g>
   <g id="patch_5">
    <path d="M 174.4 557.622952 
L 174.4 557.622952 
L 174.4 536.845619 
L 174.4 536.845619 
z
" clip-path="url(#p4fe5471366)" style="fill: #008bfb"/>
   </g>
   <g id="patch_6">
    <path d="M 174.4 527.941048 
L 174.4 527.941048 
L 174.4 507.163714 
L 174.4 507.163714 
z
" clip-path="url(#p4fe5471366)" style="fill: #008bfb"/>
   </g>
   <g id="patch_7">
    <path d="M 174.4 498.259143 
L 217.607245 498.259143 
L 217.607245 477.48181 
L 174.4 477.48181 
z
" clip-path="url(#p4fe5471366)" style="fill: #008bfb"/>
   </g>
   <g id="patch_8">
    <path d="M 174.4 468.577238 
L 292.534729 468.577238 
L 292.534729 447.799905 
L 174.4 447.799905 
z
" clip-path="url(#p4fe5471366)" style="fill: #008bfb"/>
   </g>
   <g id="patch_9">
    <path d="M 174.4 438.895333 
L 301.989759 438.895333 
L 301.989759 418.118 
L 174.4 418.118 
z
" clip-path="url(#p4fe5471366)" style="fill: #008bfb"/>
   </g>
   <g id="patch_10">
    <path d="M 174.4 409.213429 
L 306.63875 409.213429 
L 306.63875 388.436095 
L 174.4 388.436095 
z
" clip-path="url(#p4fe5471366)" style="fill: #008bfb"/>
   </g>
   <g id="patch_11">
    <path d="M 174.4 379.531524 
L 319.383069 379.531524 
L 319.383069 358.75419 
L 174.4 358.75419 
z
" clip-path="url(#p4fe5471366)" style="fill: #008bfb"/>
   </g>
   <g id="patch_12">
    <path d="M 174.4 349.849619 
L 320.537765 349.849619 
L 320.537765 329.072286 
L 174.4 329.072286 
z
" clip-path="url(#p4fe5471366)" style="fill: #008bfb"/>
   </g>
   <g id="patch_13">
    <path d="M 174.4 320.167714 
L 325.167159 320.167714 
L 325.167159 299.390381 
L 174.4 299.390381 
z
" clip-path="url(#p4fe5471366)" style="fill: #008bfb"/>
   </g>
   <g id="patch_14">
    <path d="M 174.4 290.48581 
L 330.600673 290.48581 
L 330.600673 269.708476 
L 174.4 269.708476 
z
" clip-path="url(#p4fe5471366)" style="fill: #008bfb"/>
   </g>
   <g id="patch_15">
    <path d="M 174.4 260.803905 
L 337.779596 260.803905 
L 337.779596 240.026571 
L 174.4 240.026571 
z
" clip-path="url(#p4fe5471366)" style="fill: #008bfb"/>
   </g>
   <g id="patch_16">
    <path d="M 174.4 231.122 
L 338.131527 231.122 
L 338.131527 210.344667 
L 174.4 210.344667 
z
" clip-path="url(#p4fe5471366)" style="fill: #008bfb"/>
   </g>
   <g id="patch_17">
    <path d="M 174.4 201.440095 
L 342.536874 201.440095 
L 342.536874 180.662762 
L 174.4 180.662762 
z
" clip-path="url(#p4fe5471366)" style="fill: #008bfb"/>
   </g>
   <g id="patch_18">
    <path d="M 174.4 171.75819 
L 343.798974 171.75819 
L 343.798974 150.980857 
L 174.4 150.980857 
z
" clip-path="url(#p4fe5471366)" style="fill: #008bfb"/>
   </g>
   <g id="patch_19">
    <path d="M 174.4 142.076286 
L 347.962118 142.076286 
L 347.962118 121.298952 
L 174.4 121.298952 
z
" clip-path="url(#p4fe5471366)" style="fill: #008bfb"/>
   </g>
   <g id="patch_20">
    <path d="M 174.4 112.394381 
L 348.283492 112.394381 
L 348.283492 91.617048 
L 174.4 91.617048 
z
" clip-path="url(#p4fe5471366)" style="fill: #008bfb"/>
   </g>
   <g id="patch_21">
    <path d="M 174.4 82.712476 
L 357.478303 82.712476 
L 357.478303 61.935143 
L 174.4 61.935143 
z
" clip-path="url(#p4fe5471366)" style="fill: #008bfb"/>
   </g>
   <g id="patch_22">
    <path d="M 174.4 53.030571 
L 359.466667 53.030571 
L 359.466667 32.253238 
L 174.4 32.253238 
z
" clip-path="url(#p4fe5471366)" style="fill: #008bfb"/>
   </g>
   <g id="patch_23">
    <path d="M 174.4 616.986762 
L 174.4 616.986762 
L 174.4 596.209429 
L 174.4 596.209429 
z
" clip-path="url(#p4fe5471366)" style="fill: #ff004f"/>
   </g>
   <g id="patch_24">
    <path d="M 174.4 587.304857 
L 174.4 587.304857 
L 174.4 566.527524 
L 174.4 566.527524 
z
" clip-path="url(#p4fe5471366)" style="fill: #ff004f"/>
   </g>
   <g id="patch_25">
    <path d="M 174.4 557.622952 
L 174.4 557.622952 
L 174.4 536.845619 
L 174.4 536.845619 
z
" clip-path="url(#p4fe5471366)" style="fill: #ff004f"/>
   </g>
   <g id="patch_26">
    <path d="M 174.4 527.941048 
L 174.4 527.941048 
L 174.4 507.163714 
L 174.4 507.163714 
z
" clip-path="url(#p4fe5471366)" style="fill: #ff004f"/>
   </g>
   <g id="patch_27">
    <path d="M 217.607245 498.259143 
L 260.81449 498.259143 
L 260.81449 477.48181 
L 217.607245 477.48181 
z
" clip-path="url(#p4fe5471366)" style="fill: #ff004f"/>
   </g>
   <g id="patch_28">
    <path d="M 292.534729 468.577238 
L 410.669458 468.577238 
L 410.669458 447.799905 
L 292.534729 447.799905 
z
" clip-path="url(#p4fe5471366)" style="fill: #ff004f"/>
   </g>
   <g id="patch_29">
    <path d="M 301.989759 438.895333 
L 429.579518 438.895333 
L 429.579518 418.118 
L 301.989759 418.118 
z
" clip-path="url(#p4fe5471366)" style="fill: #ff004f"/>
   </g>
   <g id="patch_30">
    <path d="M 306.63875 409.213429 
L 438.877499 409.213429 
L 438.877499 388.436095 
L 306.63875 388.436095 
z
" clip-path="url(#p4fe5471366)" style="fill: #ff004f"/>
   </g>
   <g id="patch_31">
    <path d="M 319.383069 379.531524 
L 464.366138 379.531524 
L 464.366138 358.75419 
L 319.383069 358.75419 
z
" clip-path="url(#p4fe5471366)" style="fill: #ff004f"/>
   </g>
   <g id="patch_32">
    <path d="M 320.537765 349.849619 
L 466.67553 349.849619 
L 466.67553 329.072286 
L 320.537765 329.072286 
z
" clip-path="url(#p4fe5471366)" style="fill: #ff004f"/>
   </g>
   <g id="patch_33">
    <path d="M 325.167159 320.167714 
L 475.934318 320.167714 
L 475.934318 299.390381 
L 325.167159 299.390381 
z
" clip-path="url(#p4fe5471366)" style="fill: #ff004f"/>
   </g>
   <g id="patch_34">
    <path d="M 330.600673 290.48581 
L 486.801347 290.48581 
L 486.801347 269.708476 
L 330.600673 269.708476 
z
" clip-path="url(#p4fe5471366)" style="fill: #ff004f"/>
   </g>
   <g id="patch_35">
    <path d="M 337.779596 260.803905 
L 501.159193 260.803905 
L 501.159193 240.026571 
L 337.779596 240.026571 
z
" clip-path="url(#p4fe5471366)" style="fill: #ff004f"/>
   </g>
   <g id="patch_36">
    <path d="M 338.131527 231.122 
L 501.863054 231.122 
L 501.863054 210.344667 
L 338.131527 210.344667 
z
" clip-path="url(#p4fe5471366)" style="fill: #ff004f"/>
   </g>
   <g id="patch_37">
    <path d="M 342.536874 201.440095 
L 510.673749 201.440095 
L 510.673749 180.662762 
L 342.536874 180.662762 
z
" clip-path="url(#p4fe5471366)" style="fill: #ff004f"/>
   </g>
   <g id="patch_38">
    <path d="M 343.798974 171.75819 
L 513.197948 171.75819 
L 513.197948 150.980857 
L 343.798974 150.980857 
z
" clip-path="url(#p4fe5471366)" style="fill: #ff004f"/>
   </g>
   <g id="patch_39">
    <path d="M 347.962118 142.076286 
L 521.524236 142.076286 
L 521.524236 121.298952 
L 347.962118 121.298952 
z
" clip-path="url(#p4fe5471366)" style="fill: #ff004f"/>
   </g>
   <g id="patch_40">
    <path d="M 348.283492 112.394381 
L 522.166983 112.394381 
L 522.166983 91.617048 
L 348.283492 91.617048 
z
" clip-path="url(#p4fe5471366)" style="fill: #ff004f"/>
   </g>
   <g id="patch_41">
    <path d="M 357.478303 82.712476 
L 540.556606 82.712476 
L 540.556606 61.935143 
L 357.478303 61.935143 
z
" clip-path="url(#p4fe5471366)" style="fill: #ff004f"/>
   </g>
   <g id="patch_42">
    <path d="M 359.466667 53.030571 
L 544.533333 53.030571 
L 544.533333 32.253238 
L 359.466667 32.253238 
z
" clip-path="url(#p4fe5471366)" style="fill: #ff004f"/>
   </g>
   <g id="matplotlib.axis_1">
    <g id="xtick_1">
     <g id="line2d_2">
      <defs>
       <path id="m4a327583a7" d="M 0 0 
L 0 3.5 
" style="stroke: #333333; stroke-width: 0.8"/>
      </defs>
      <g>
       <use xlink:href="#m4a327583a7" x="174.4" y="636.28" style="fill: #333333; stroke: #333333; stroke-width: 0.8"/>
      </g>
     </g>
     <g id="text_1">
      <!-- 0.00 -->
      <g transform="translate(162.723438 651.91625) scale(0.12 -0.12)">
       <defs>
        <path id="Helvetica-Bold-30" d="M 1109 2222 
Q 1109 1441 1237 1027 
Q 1366 613 1763 613 
Q 2159 613 2282 1027 
Q 2406 1441 2406 2222 
Q 2406 3041 2282 3434 
Q 2159 3828 1763 3828 
Q 1366 3828 1237 3434 
Q 1109 3041 1109 2222 
z
M 1763 4563 
Q 2628 4563 2976 3953 
Q 3325 3344 3325 2222 
Q 3325 1100 2976 493 
Q 2628 -113 1763 -113 
Q 897 -113 548 493 
Q 200 1100 200 2222 
Q 200 3344 548 3953 
Q 897 4563 1763 4563 
z
" transform="scale(0.015625)"/>
        <path id="Helvetica-Bold-2e" d="M 400 931 
L 1347 931 
L 1347 0 
L 400 0 
L 400 931 
z
" transform="scale(0.015625)"/>
       </defs>
       <use xlink:href="#Helvetica-Bold-30"/>
       <use xlink:href="#Helvetica-Bold-2e" x="55.615234"/>
       <use xlink:href="#Helvetica-Bold-30" x="83.398438"/>
       <use xlink:href="#Helvetica-Bold-30" x="139.013672"/>
      </g>
     </g>
    </g>
    <g id="xtick_2">
     <g id="line2d_3">
      <g>
       <use xlink:href="#m4a327583a7" x="258.672334" y="636.28" style="fill: #333333; stroke: #333333; stroke-width: 0.8"/>
      </g>
     </g>
     <g id="text_2">
      <!-- 0.01 -->
      <g transform="translate(246.995771 651.91625) scale(0.12 -0.12)">
       <defs>
        <path id="Helvetica-Bold-31" d="M 444 3125 
L 444 3731 
Q 866 3750 1034 3788 
Q 1303 3847 1472 4025 
Q 1588 4147 1647 4350 
Q 1681 4472 1681 4531 
L 2422 4531 
L 2422 0 
L 1509 0 
L 1509 3125 
L 444 3125 
z
" transform="scale(0.015625)"/>
       </defs>
       <use xlink:href="#Helvetica-Bold-30"/>
       <use xlink:href="#Helvetica-Bold-2e" x="55.615234"/>
       <use xlink:href="#Helvetica-Bold-30" x="83.398438"/>
       <use xlink:href="#Helvetica-Bold-31" x="139.013672"/>
      </g>
     </g>
    </g>
    <g id="xtick_3">
     <g id="line2d_4">
      <g>
       <use xlink:href="#m4a327583a7" x="342.944668" y="636.28" style="fill: #333333; stroke: #333333; stroke-width: 0.8"/>
      </g>
     </g>
     <g id="text_3">
      <!-- 0.02 -->
      <g transform="translate(331.268105 651.91625) scale(0.12 -0.12)">
       <defs>
        <path id="Helvetica-Bold-32" d="M 200 0 
Q 213 488 409 891 
Q 600 1344 1309 1850 
Q 1925 2291 2106 2481 
Q 2384 2778 2384 3131 
Q 2384 3419 2225 3609 
Q 2066 3800 1769 3800 
Q 1363 3800 1216 3497 
Q 1131 3322 1116 2941 
L 250 2941 
Q 272 3519 459 3875 
Q 816 4553 1725 4553 
Q 2444 4553 2869 4154 
Q 3294 3756 3294 3100 
Q 3294 2597 2994 2206 
Q 2797 1947 2347 1628 
L 1991 1375 
Q 1656 1138 1532 1031 
Q 1409 925 1325 784 
L 3303 784 
L 3303 0 
L 200 0 
z
" transform="scale(0.015625)"/>
       </defs>
       <use xlink:href="#Helvetica-Bold-30"/>
       <use xlink:href="#Helvetica-Bold-2e" x="55.615234"/>
       <use xlink:href="#Helvetica-Bold-30" x="83.398438"/>
       <use xlink:href="#Helvetica-Bold-32" x="139.013672"/>
      </g>
     </g>
    </g>
    <g id="xtick_4">
     <g id="line2d_5">
      <g>
       <use xlink:href="#m4a327583a7" x="427.217002" y="636.28" style="fill: #333333; stroke: #333333; stroke-width: 0.8"/>
      </g>
     </g>
     <g id="text_4">
      <!-- 0.03 -->
      <g transform="translate(415.540439 651.91625) scale(0.12 -0.12)">
       <defs>
        <path id="Helvetica-Bold-33" d="M 1044 1391 
Q 1044 1119 1131 941 
Q 1294 613 1722 613 
Q 1984 613 2179 792 
Q 2375 972 2375 1309 
Q 2375 1756 2013 1906 
Q 1806 1991 1363 1991 
L 1363 2628 
Q 1797 2634 1969 2713 
Q 2266 2844 2266 3244 
Q 2266 3503 2114 3665 
Q 1963 3828 1688 3828 
Q 1372 3828 1223 3628 
Q 1075 3428 1081 3094 
L 250 3094 
Q 263 3431 366 3734 
Q 475 4000 709 4225 
Q 884 4384 1125 4468 
Q 1366 4553 1716 4553 
Q 2366 4553 2764 4217 
Q 3163 3881 3163 3316 
Q 3163 2916 2925 2641 
Q 2775 2469 2613 2406 
Q 2734 2406 2963 2197 
Q 3303 1881 3303 1334 
Q 3303 759 2904 323 
Q 2506 -113 1725 -113 
Q 763 -113 388 516 
Q 191 850 169 1391 
L 1044 1391 
z
" transform="scale(0.015625)"/>
       </defs>
       <use xlink:href="#Helvetica-Bold-30"/>
       <use xlink:href="#Helvetica-Bold-2e" x="55.615234"/>
       <use xlink:href="#Helvetica-Bold-30" x="83.398438"/>
       <use xlink:href="#Helvetica-Bold-33" x="139.013672"/>
      </g>
     </g>
    </g>
    <g id="xtick_5">
     <g id="line2d_6">
      <g>
       <use xlink:href="#m4a327583a7" x="511.489336" y="636.28" style="fill: #333333; stroke: #333333; stroke-width: 0.8"/>
      </g>
     </g>
     <g id="text_5">
      <!-- 0.04 -->
      <g transform="translate(499.812773 651.91625) scale(0.12 -0.12)">
       <defs>
        <path id="Helvetica-Bold-34" d="M 3347 975 
L 2834 975 
L 2834 0 
L 1963 0 
L 1963 975 
L 169 975 
L 169 1753 
L 1834 4503 
L 2834 4503 
L 2834 1672 
L 3347 1672 
L 3347 975 
z
M 1963 1672 
L 1963 3628 
L 828 1672 
L 1963 1672 
z
" transform="scale(0.015625)"/>
       </defs>
       <use xlink:href="#Helvetica-Bold-30"/>
       <use xlink:href="#Helvetica-Bold-2e" x="55.615234"/>
       <use xlink:href="#Helvetica-Bold-30" x="83.398438"/>
       <use xlink:href="#Helvetica-Bold-34" x="139.013672"/>
      </g>
     </g>
    </g>
    <g id="text_6">
     <!-- SHAP value(impact on model output) -->
     <g transform="translate(171.299375 676.115625) scale(0.24 -0.24)">
      <defs>
       <path id="Helvetica-53" d="M 894 1481 
Q 916 1091 1078 847 
Q 1388 391 2169 391 
Q 2519 391 2806 491 
Q 3363 684 3363 1184 
Q 3363 1559 3128 1719 
Q 2891 1875 2384 1991 
L 1763 2131 
Q 1153 2269 900 2434 
Q 463 2722 463 3294 
Q 463 3913 891 4309 
Q 1319 4706 2103 4706 
Q 2825 4706 3329 4357 
Q 3834 4009 3834 3244 
L 3250 3244 
Q 3203 3613 3050 3809 
Q 2766 4169 2084 4169 
Q 1534 4169 1293 3937 
Q 1053 3706 1053 3400 
Q 1053 3063 1334 2906 
Q 1519 2806 2169 2656 
L 2813 2509 
Q 3278 2403 3531 2219 
Q 3969 1897 3969 1284 
Q 3969 522 3414 194 
Q 2859 -134 2125 -134 
Q 1269 -134 784 303 
Q 300 738 309 1481 
L 894 1481 
z
M 2150 4716 
L 2150 4716 
z
" transform="scale(0.015625)"/>
       <path id="Helvetica-48" d="M 503 4591 
L 1131 4591 
L 1131 2694 
L 3519 2694 
L 3519 4591 
L 4147 4591 
L 4147 0 
L 3519 0 
L 3519 2147 
L 1131 2147 
L 1131 0 
L 503 0 
L 503 4591 
z
" transform="scale(0.015625)"/>
       <path id="Helvetica-41" d="M 2844 1881 
L 2147 3909 
L 1406 1881 
L 2844 1881 
z
M 1822 4591 
L 2525 4591 
L 4191 0 
L 3509 0 
L 3044 1375 
L 1228 1375 
L 731 0 
L 94 0 
L 1822 4591 
z
M 2144 4591 
L 2144 4591 
z
" transform="scale(0.015625)"/>
       <path id="Helvetica-50" d="M 547 4591 
L 2613 4591 
Q 3225 4591 3600 4245 
Q 3975 3900 3975 3275 
Q 3975 2738 3640 2339 
Q 3306 1941 2613 1941 
L 1169 1941 
L 1169 0 
L 547 0 
L 547 4591 
z
M 3347 3272 
Q 3347 3778 2972 3959 
Q 2766 4056 2406 4056 
L 1169 4056 
L 1169 2466 
L 2406 2466 
Q 2825 2466 3086 2644 
Q 3347 2822 3347 3272 
z
" transform="scale(0.015625)"/>
       <path id="Helvetica-20" transform="scale(0.015625)"/>
       <path id="Helvetica-76" d="M 688 3347 
L 1581 622 
L 2516 3347 
L 3131 3347 
L 1869 0 
L 1269 0 
L 34 3347 
L 688 3347 
z
" transform="scale(0.015625)"/>
       <path id="Helvetica-61" d="M 844 891 
Q 844 647 1022 506 
Q 1200 366 1444 366 
Q 1741 366 2019 503 
Q 2488 731 2488 1250 
L 2488 1703 
Q 2384 1638 2221 1594 
Q 2059 1550 1903 1531 
L 1563 1488 
Q 1256 1447 1103 1359 
Q 844 1213 844 891 
z
M 2206 2028 
Q 2400 2053 2466 2191 
Q 2503 2266 2503 2406 
Q 2503 2694 2298 2823 
Q 2094 2953 1713 2953 
Q 1272 2953 1088 2716 
Q 984 2584 953 2325 
L 428 2325 
Q 444 2944 830 3186 
Q 1216 3428 1725 3428 
Q 2316 3428 2684 3203 
Q 3050 2978 3050 2503 
L 3050 575 
Q 3050 488 3086 434 
Q 3122 381 3238 381 
Q 3275 381 3322 386 
Q 3369 391 3422 400 
L 3422 -16 
Q 3291 -53 3222 -62 
Q 3153 -72 3034 -72 
Q 2744 -72 2613 134 
Q 2544 244 2516 444 
Q 2344 219 2022 53 
Q 1700 -113 1313 -113 
Q 847 -113 551 170 
Q 256 453 256 878 
Q 256 1344 547 1600 
Q 838 1856 1309 1916 
L 2206 2028 
z
M 1741 3428 
L 1741 3428 
z
" transform="scale(0.015625)"/>
       <path id="Helvetica-6c" d="M 428 4591 
L 991 4591 
L 991 0 
L 428 0 
L 428 4591 
z
" transform="scale(0.015625)"/>
       <path id="Helvetica-75" d="M 975 3347 
L 975 1125 
Q 975 869 1056 706 
Q 1206 406 1616 406 
Q 2203 406 2416 931 
Q 2531 1213 2531 1703 
L 2531 3347 
L 3094 3347 
L 3094 0 
L 2563 0 
L 2569 494 
Q 2459 303 2297 172 
Q 1975 -91 1516 -91 
Q 800 -91 541 388 
Q 400 644 400 1072 
L 400 3347 
L 975 3347 
z
M 1747 3428 
L 1747 3428 
z
" transform="scale(0.015625)"/>
       <path id="Helvetica-65" d="M 1806 3422 
Q 2163 3422 2497 3255 
Q 2831 3088 3006 2822 
Q 3175 2569 3231 2231 
Q 3281 2000 3281 1494 
L 828 1494 
Q 844 984 1069 676 
Q 1294 369 1766 369 
Q 2206 369 2469 659 
Q 2619 828 2681 1050 
L 3234 1050 
Q 3213 866 3089 639 
Q 2966 413 2813 269 
Q 2556 19 2178 -69 
Q 1975 -119 1719 -119 
Q 1094 -119 659 336 
Q 225 791 225 1609 
Q 225 2416 662 2919 
Q 1100 3422 1806 3422 
z
M 2703 1941 
Q 2669 2306 2544 2525 
Q 2313 2931 1772 2931 
Q 1384 2931 1121 2651 
Q 859 2372 844 1941 
L 2703 1941 
z
M 1753 3428 
L 1753 3428 
z
" transform="scale(0.015625)"/>
       <path id="Helvetica-28" d="M 1894 4666 
Q 1403 3713 1256 3263 
Q 1034 2578 1034 1681 
Q 1034 775 1288 25 
Q 1444 -438 1903 -1306 
L 1525 -1306 
Q 1069 -594 959 -397 
Q 850 -200 722 138 
Q 547 600 478 1125 
Q 444 1397 444 1644 
Q 444 2569 734 3291 
Q 919 3750 1503 4666 
L 1894 4666 
z
" transform="scale(0.015625)"/>
       <path id="Helvetica-69" d="M 413 3331 
L 984 3331 
L 984 0 
L 413 0 
L 413 3331 
z
M 413 4591 
L 984 4591 
L 984 3953 
L 413 3953 
L 413 4591 
z
" transform="scale(0.015625)"/>
       <path id="Helvetica-6d" d="M 413 3347 
L 969 3347 
L 969 2872 
Q 1169 3119 1331 3231 
Q 1609 3422 1963 3422 
Q 2363 3422 2606 3225 
Q 2744 3113 2856 2894 
Q 3044 3163 3297 3292 
Q 3550 3422 3866 3422 
Q 4541 3422 4784 2934 
Q 4916 2672 4916 2228 
L 4916 0 
L 4331 0 
L 4331 2325 
Q 4331 2659 4164 2784 
Q 3997 2909 3756 2909 
Q 3425 2909 3186 2687 
Q 2947 2466 2947 1947 
L 2947 0 
L 2375 0 
L 2375 2184 
Q 2375 2525 2294 2681 
Q 2166 2916 1816 2916 
Q 1497 2916 1236 2669 
Q 975 2422 975 1775 
L 975 0 
L 413 0 
L 413 3347 
z
" transform="scale(0.015625)"/>
       <path id="Helvetica-70" d="M 1825 378 
Q 2219 378 2480 708 
Q 2741 1038 2741 1694 
Q 2741 2094 2625 2381 
Q 2406 2934 1825 2934 
Q 1241 2934 1025 2350 
Q 909 2038 909 1556 
Q 909 1169 1025 897 
Q 1244 378 1825 378 
z
M 369 3331 
L 916 3331 
L 916 2888 
Q 1084 3116 1284 3241 
Q 1569 3428 1953 3428 
Q 2522 3428 2919 2992 
Q 3316 2556 3316 1747 
Q 3316 653 2744 184 
Q 2381 -113 1900 -113 
Q 1522 -113 1266 53 
Q 1116 147 931 375 
L 931 -1334 
L 369 -1334 
L 369 3331 
z
" transform="scale(0.015625)"/>
       <path id="Helvetica-63" d="M 1703 3444 
Q 2269 3444 2623 3169 
Q 2978 2894 3050 2222 
L 2503 2222 
Q 2453 2531 2275 2736 
Q 2097 2941 1703 2941 
Q 1166 2941 934 2416 
Q 784 2075 784 1575 
Q 784 1072 996 728 
Q 1209 384 1666 384 
Q 2016 384 2220 598 
Q 2425 813 2503 1184 
L 3050 1184 
Q 2956 519 2581 211 
Q 2206 -97 1622 -97 
Q 966 -97 575 383 
Q 184 863 184 1581 
Q 184 2463 612 2953 
Q 1041 3444 1703 3444 
z
M 1616 3428 
L 1616 3428 
z
" transform="scale(0.015625)"/>
       <path id="Helvetica-74" d="M 525 4281 
L 1094 4281 
L 1094 3347 
L 1628 3347 
L 1628 2888 
L 1094 2888 
L 1094 703 
Q 1094 528 1213 469 
Q 1278 434 1431 434 
Q 1472 434 1519 436 
Q 1566 438 1628 444 
L 1628 0 
Q 1531 -28 1426 -40 
Q 1322 -53 1200 -53 
Q 806 -53 665 148 
Q 525 350 525 672 
L 525 2888 
L 72 2888 
L 72 3347 
L 525 3347 
L 525 4281 
z
" transform="scale(0.015625)"/>
       <path id="Helvetica-6f" d="M 1741 363 
Q 2300 363 2508 786 
Q 2716 1209 2716 1728 
Q 2716 2197 2566 2491 
Q 2328 2953 1747 2953 
Q 1231 2953 997 2559 
Q 763 2166 763 1609 
Q 763 1075 997 719 
Q 1231 363 1741 363 
z
M 1763 3444 
Q 2409 3444 2856 3012 
Q 3303 2581 3303 1744 
Q 3303 934 2909 406 
Q 2516 -122 1688 -122 
Q 997 -122 590 345 
Q 184 813 184 1600 
Q 184 2444 612 2944 
Q 1041 3444 1763 3444 
z
M 1744 3428 
L 1744 3428 
z
" transform="scale(0.015625)"/>
       <path id="Helvetica-6e" d="M 413 3347 
L 947 3347 
L 947 2872 
Q 1184 3166 1450 3294 
Q 1716 3422 2041 3422 
Q 2753 3422 3003 2925 
Q 3141 2653 3141 2147 
L 3141 0 
L 2569 0 
L 2569 2109 
Q 2569 2416 2478 2603 
Q 2328 2916 1934 2916 
Q 1734 2916 1606 2875 
Q 1375 2806 1200 2600 
Q 1059 2434 1017 2257 
Q 975 2081 975 1753 
L 975 0 
L 413 0 
L 413 3347 
z
M 1734 3428 
L 1734 3428 
z
" transform="scale(0.015625)"/>
       <path id="Helvetica-64" d="M 769 1634 
Q 769 1097 997 734 
Q 1225 372 1728 372 
Q 2119 372 2370 708 
Q 2622 1044 2622 1672 
Q 2622 2306 2362 2611 
Q 2103 2916 1722 2916 
Q 1297 2916 1033 2591 
Q 769 2266 769 1634 
z
M 1616 3406 
Q 2000 3406 2259 3244 
Q 2409 3150 2600 2916 
L 2600 4606 
L 3141 4606 
L 3141 0 
L 2634 0 
L 2634 466 
Q 2438 156 2169 18 
Q 1900 -119 1553 -119 
Q 994 -119 584 351 
Q 175 822 175 1603 
Q 175 2334 548 2870 
Q 922 3406 1616 3406 
z
" transform="scale(0.015625)"/>
       <path id="Helvetica-29" d="M 222 -1306 
Q 719 -338 863 106 
Q 1081 778 1081 1681 
Q 1081 2584 828 3334 
Q 672 3797 213 4666 
L 591 4666 
Q 1072 3897 1173 3717 
Q 1275 3538 1394 3222 
Q 1544 2831 1608 2450 
Q 1672 2069 1672 1716 
Q 1672 791 1378 66 
Q 1194 -400 613 -1306 
L 222 -1306 
z
" transform="scale(0.015625)"/>
      </defs>
      <use xlink:href="#Helvetica-53"/>
      <use xlink:href="#Helvetica-48" x="66.699219"/>
      <use xlink:href="#Helvetica-41" x="138.916016"/>
      <use xlink:href="#Helvetica-50" x="205.615234"/>
      <use xlink:href="#Helvetica-20" x="272.314453"/>
      <use xlink:href="#Helvetica-76" x="300.097656"/>
      <use xlink:href="#Helvetica-61" x="350.097656"/>
      <use xlink:href="#Helvetica-6c" x="405.712891"/>
      <use xlink:href="#Helvetica-75" x="427.929688"/>
      <use xlink:href="#Helvetica-65" x="483.544922"/>
      <use xlink:href="#Helvetica-28" x="539.160156"/>
      <use xlink:href="#Helvetica-69" x="572.460938"/>
      <use xlink:href="#Helvetica-6d" x="594.677734"/>
      <use xlink:href="#Helvetica-70" x="677.978516"/>
      <use xlink:href="#Helvetica-61" x="733.59375"/>
      <use xlink:href="#Helvetica-63" x="789.208984"/>
      <use xlink:href="#Helvetica-74" x="839.208984"/>
      <use xlink:href="#Helvetica-20" x="866.992188"/>
      <use xlink:href="#Helvetica-6f" x="894.775391"/>
      <use xlink:href="#Helvetica-6e" x="950.390625"/>
      <use xlink:href="#Helvetica-20" x="1006.005859"/>
      <use xlink:href="#Helvetica-6d" x="1033.789062"/>
      <use xlink:href="#Helvetica-6f" x="1117.089844"/>
      <use xlink:href="#Helvetica-64" x="1172.705078"/>
      <use xlink:href="#Helvetica-65" x="1228.320312"/>
      <use xlink:href="#Helvetica-6c" x="1283.935547"/>
      <use xlink:href="#Helvetica-20" x="1306.152344"/>
      <use xlink:href="#Helvetica-6f" x="1333.935547"/>
      <use xlink:href="#Helvetica-75" x="1389.550781"/>
      <use xlink:href="#Helvetica-74" x="1445.166016"/>
      <use xlink:href="#Helvetica-70" x="1472.949219"/>
      <use xlink:href="#Helvetica-75" x="1528.564453"/>
      <use xlink:href="#Helvetica-74" x="1584.179688"/>
      <use xlink:href="#Helvetica-29" x="1611.962891"/>
     </g>
    </g>
   </g>
   <g id="matplotlib.axis_2">
    <g id="ytick_1">
     <g id="text_7">
      <!-- MEANDOM -->
      <g transform="translate(104.071875 610.91622) scale(0.12 -0.12)">
       <defs>
        <path id="Helvetica-Bold-4d" d="M 3541 4606 
L 4925 4606 
L 4925 0 
L 4028 0 
L 4028 3116 
Q 4028 3250 4031 3492 
Q 4034 3734 4034 3866 
L 3163 0 
L 2228 0 
L 1363 3866 
Q 1363 3734 1366 3492 
Q 1369 3250 1369 3116 
L 1369 0 
L 472 0 
L 472 4606 
L 1872 4606 
L 2709 984 
L 3541 4606 
z
" transform="scale(0.015625)"/>
        <path id="Helvetica-Bold-45" d="M 3894 3791 
L 1456 3791 
L 1456 2813 
L 3694 2813 
L 3694 2013 
L 1456 2013 
L 1456 828 
L 4006 828 
L 4006 0 
L 516 0 
L 516 4606 
L 3894 4606 
L 3894 3791 
z
" transform="scale(0.015625)"/>
        <path id="Helvetica-Bold-41" d="M 1747 1741 
L 2916 1741 
L 2341 3553 
L 1747 1741 
z
M 1806 4606 
L 2894 4606 
L 4525 0 
L 3481 0 
L 3184 947 
L 1488 947 
L 1169 0 
L 163 0 
L 1806 4606 
z
M 2344 4606 
L 2344 4606 
z
" transform="scale(0.015625)"/>
        <path id="Helvetica-Bold-4e" d="M 472 4606 
L 1481 4606 
L 3316 1391 
L 3316 4606 
L 4213 4606 
L 4213 0 
L 3250 0 
L 1369 3272 
L 1369 0 
L 472 0 
L 472 4606 
z
M 2378 4616 
L 2378 4616 
z
" transform="scale(0.015625)"/>
        <path id="Helvetica-Bold-44" d="M 1422 3806 
L 1422 800 
L 2309 800 
Q 2991 800 3259 1472 
Q 3406 1841 3406 2350 
Q 3406 3053 3186 3429 
Q 2966 3806 2309 3806 
L 1422 3806 
z
M 2472 4606 
Q 2900 4600 3184 4506 
Q 3669 4347 3969 3922 
Q 4209 3578 4296 3178 
Q 4384 2778 4384 2416 
Q 4384 1497 4016 859 
Q 3516 0 2472 0 
L 488 0 
L 488 4606 
L 2472 4606 
z
" transform="scale(0.015625)"/>
        <path id="Helvetica-Bold-4f" d="M 2525 688 
Q 3097 688 3433 1109 
Q 3769 1531 3769 2309 
Q 3769 3084 3433 3507 
Q 3097 3931 2525 3931 
Q 1953 3931 1612 3509 
Q 1272 3088 1272 2309 
Q 1272 1531 1612 1109 
Q 1953 688 2525 688 
z
M 4731 2309 
Q 4731 1069 4034 409 
Q 3513 -128 2525 -128 
Q 1538 -128 1016 409 
Q 316 1069 316 2309 
Q 316 3575 1016 4209 
Q 1538 4747 2525 4747 
Q 3513 4747 4034 4209 
Q 4731 3575 4731 2309 
z
M 2525 4747 
L 2525 4747 
z
" transform="scale(0.015625)"/>
       </defs>
       <use xlink:href="#Helvetica-Bold-4d"/>
       <use xlink:href="#Helvetica-Bold-45" x="83.300781"/>
       <use xlink:href="#Helvetica-Bold-41" x="150"/>
       <use xlink:href="#Helvetica-Bold-4e" x="222.216797"/>
       <use xlink:href="#Helvetica-Bold-44" x="294.433594"/>
       <use xlink:href="#Helvetica-Bold-4f" x="366.650391"/>
       <use xlink:href="#Helvetica-Bold-4d" x="444.433594"/>
      </g>
     </g>
    </g>
    <g id="ytick_2">
     <g id="text_8">
      <!-- MINDOM -->
      <g transform="translate(117.40875 581.234315) scale(0.12 -0.12)">
       <defs>
        <path id="Helvetica-Bold-49" d="M 1369 0 
L 413 0 
L 413 4606 
L 1369 4606 
L 1369 0 
z
M 891 4697 
L 891 4697 
z
" transform="scale(0.015625)"/>
       </defs>
       <use xlink:href="#Helvetica-Bold-4d"/>
       <use xlink:href="#Helvetica-Bold-49" x="83.300781"/>
       <use xlink:href="#Helvetica-Bold-4e" x="111.083984"/>
       <use xlink:href="#Helvetica-Bold-44" x="183.300781"/>
       <use xlink:href="#Helvetica-Bold-4f" x="255.517578"/>
       <use xlink:href="#Helvetica-Bold-4d" x="333.300781"/>
      </g>
     </g>
    </g>
    <g id="ytick_3">
     <g id="text_9">
      <!-- MEDIAN_FREQUENCY -->
      <g transform="translate(38.053125 551.552411) scale(0.12 -0.12)">
       <defs>
        <path id="Helvetica-Bold-5f" d="M 0 -800 
L 0 -484 
L 3559 -484 
L 3559 -800 
L 0 -800 
z
" transform="scale(0.015625)"/>
        <path id="Helvetica-Bold-46" d="M 488 4600 
L 3753 4600 
L 3753 3791 
L 1444 3791 
L 1444 2731 
L 3466 2731 
L 3466 1931 
L 1444 1931 
L 1444 0 
L 488 0 
L 488 4600 
z
" transform="scale(0.015625)"/>
        <path id="Helvetica-Bold-52" d="M 1450 3806 
L 1450 2569 
L 2541 2569 
Q 2866 2569 3028 2644 
Q 3316 2775 3316 3163 
Q 3316 3581 3038 3725 
Q 2881 3806 2569 3806 
L 1450 3806 
z
M 2769 4606 
Q 3253 4597 3514 4487 
Q 3775 4378 3956 4166 
Q 4106 3991 4193 3778 
Q 4281 3566 4281 3294 
Q 4281 2966 4115 2648 
Q 3950 2331 3569 2200 
Q 3888 2072 4020 1836 
Q 4153 1600 4153 1116 
L 4153 806 
Q 4153 491 4178 378 
Q 4216 200 4353 116 
L 4353 0 
L 3294 0 
Q 3250 153 3231 247 
Q 3194 441 3191 644 
L 3184 1072 
Q 3178 1513 3023 1659 
Q 2869 1806 2444 1806 
L 1450 1806 
L 1450 0 
L 509 0 
L 509 4606 
L 2769 4606 
z
" transform="scale(0.015625)"/>
        <path id="Helvetica-Bold-51" d="M 2516 688 
Q 2681 688 2834 728 
Q 2919 750 3050 806 
L 2584 1250 
L 3081 1769 
L 3547 1325 
Q 3656 1550 3700 1719 
Q 3769 1972 3769 2309 
Q 3769 3084 3451 3507 
Q 3134 3931 2525 3931 
Q 1953 3931 1612 3525 
Q 1272 3119 1272 2309 
Q 1272 1363 1759 953 
Q 2075 688 2516 688 
z
M 4731 2378 
Q 4731 1763 4581 1347 
Q 4459 950 4222 688 
L 4753 191 
L 4250 -334 
L 3694 191 
Q 3441 38 3256 -25 
Q 2947 -128 2516 -128 
Q 1616 -128 1028 409 
Q 316 1056 316 2309 
Q 316 3572 1047 4219 
Q 1644 4747 2531 4747 
Q 3425 4747 4031 4188 
Q 4731 3541 4731 2378 
z
" transform="scale(0.015625)"/>
        <path id="Helvetica-Bold-55" d="M 488 4606 
L 1466 4606 
L 1466 1775 
Q 1466 1300 1578 1081 
Q 1753 694 2341 694 
Q 2925 694 3100 1081 
Q 3213 1300 3213 1775 
L 3213 4606 
L 4191 4606 
L 4191 1775 
Q 4191 1041 3963 631 
Q 3538 -119 2341 -119 
Q 1144 -119 716 631 
Q 488 1041 488 1775 
L 488 4606 
z
M 2341 4606 
L 2341 4606 
z
" transform="scale(0.015625)"/>
        <path id="Helvetica-Bold-43" d="M 288 2266 
Q 288 3472 934 4125 
Q 1497 4694 2366 4694 
Q 3528 4694 4066 3931 
Q 4363 3503 4384 3072 
L 3422 3072 
Q 3328 3403 3181 3572 
Q 2919 3872 2403 3872 
Q 1878 3872 1575 3448 
Q 1272 3025 1272 2250 
Q 1272 1475 1592 1089 
Q 1913 703 2406 703 
Q 2913 703 3178 1034 
Q 3325 1213 3422 1569 
L 4375 1569 
Q 4250 816 3736 344 
Q 3222 -128 2419 -128 
Q 1425 -128 856 509 
Q 288 1150 288 2266 
z
M 2338 4747 
L 2338 4747 
z
" transform="scale(0.015625)"/>
        <path id="Helvetica-Bold-59" d="M 3116 4606 
L 4206 4606 
L 2666 1731 
L 2666 0 
L 1703 0 
L 1703 1731 
L 109 4606 
L 1244 4606 
L 2200 2600 
L 3116 4606 
z
M 2159 4606 
L 2159 4606 
z
" transform="scale(0.015625)"/>
       </defs>
       <use xlink:href="#Helvetica-Bold-4d"/>
       <use xlink:href="#Helvetica-Bold-45" x="83.300781"/>
       <use xlink:href="#Helvetica-Bold-44" x="150"/>
       <use xlink:href="#Helvetica-Bold-49" x="222.216797"/>
       <use xlink:href="#Helvetica-Bold-41" x="250"/>
       <use xlink:href="#Helvetica-Bold-4e" x="322.216797"/>
       <use xlink:href="#Helvetica-Bold-5f" x="394.433594"/>
       <use xlink:href="#Helvetica-Bold-46" x="450.048828"/>
       <use xlink:href="#Helvetica-Bold-52" x="511.132812"/>
       <use xlink:href="#Helvetica-Bold-45" x="583.349609"/>
       <use xlink:href="#Helvetica-Bold-51" x="650.048828"/>
       <use xlink:href="#Helvetica-Bold-55" x="727.832031"/>
       <use xlink:href="#Helvetica-Bold-45" x="800.048828"/>
       <use xlink:href="#Helvetica-Bold-4e" x="866.748047"/>
       <use xlink:href="#Helvetica-Bold-43" x="938.964844"/>
       <use xlink:href="#Helvetica-Bold-59" x="1011.181641"/>
      </g>
     </g>
    </g>
    <g id="ytick_4">
     <g id="text_10">
      <!-- RMS -->
      <g transform="translate(140.73375 521.870506) scale(0.12 -0.12)">
       <defs>
        <path id="Helvetica-Bold-53" d="M 1184 1422 
Q 1228 1106 1356 950 
Q 1591 666 2159 666 
Q 2500 666 2713 741 
Q 3116 884 3116 1275 
Q 3116 1503 2916 1628 
Q 2716 1750 2288 1844 
L 1800 1953 
Q 1081 2116 806 2306 
Q 341 2625 341 3303 
Q 341 3922 791 4331 
Q 1241 4741 2113 4741 
Q 2841 4741 3355 4355 
Q 3869 3969 3894 3234 
L 2969 3234 
Q 2944 3650 2606 3825 
Q 2381 3941 2047 3941 
Q 1675 3941 1453 3791 
Q 1231 3641 1231 3372 
Q 1231 3125 1450 3003 
Q 1591 2922 2050 2813 
L 2844 2622 
Q 3366 2497 3631 2288 
Q 4044 1963 4044 1347 
Q 4044 716 3561 298 
Q 3078 -119 2197 -119 
Q 1297 -119 781 292 
Q 266 703 266 1422 
L 1184 1422 
z
M 2119 4747 
L 2119 4747 
z
" transform="scale(0.015625)"/>
       </defs>
       <use xlink:href="#Helvetica-Bold-52"/>
       <use xlink:href="#Helvetica-Bold-4d" x="72.216797"/>
       <use xlink:href="#Helvetica-Bold-53" x="155.517578"/>
      </g>
     </g>
    </g>
    <g id="ytick_5">
     <g id="text_11">
      <!-- SPECTRAL_FLATNESS -->
      <g transform="translate(32.7225 492.188601) scale(0.12 -0.12)">
       <defs>
        <path id="Helvetica-Bold-50" d="M 3081 3141 
Q 3081 3500 2892 3653 
Q 2703 3806 2363 3806 
L 1466 3806 
L 1466 2450 
L 2363 2450 
Q 2703 2450 2892 2615 
Q 3081 2781 3081 3141 
z
M 4034 3147 
Q 4034 2331 3621 1993 
Q 3209 1656 2444 1656 
L 1466 1656 
L 1466 0 
L 509 0 
L 509 4606 
L 2516 4606 
Q 3209 4606 3621 4250 
Q 4034 3894 4034 3147 
z
" transform="scale(0.015625)"/>
        <path id="Helvetica-Bold-54" d="M 3834 4606 
L 3834 3791 
L 2456 3791 
L 2456 0 
L 1488 0 
L 1488 3791 
L 103 3791 
L 103 4606 
L 3834 4606 
z
" transform="scale(0.015625)"/>
        <path id="Helvetica-Bold-4c" d="M 488 4606 
L 1450 4606 
L 1450 828 
L 3731 828 
L 3731 0 
L 488 0 
L 488 4606 
z
" transform="scale(0.015625)"/>
       </defs>
       <use xlink:href="#Helvetica-Bold-53"/>
       <use xlink:href="#Helvetica-Bold-50" x="66.699219"/>
       <use xlink:href="#Helvetica-Bold-45" x="133.398438"/>
       <use xlink:href="#Helvetica-Bold-43" x="200.097656"/>
       <use xlink:href="#Helvetica-Bold-54" x="272.314453"/>
       <use xlink:href="#Helvetica-Bold-52" x="333.398438"/>
       <use xlink:href="#Helvetica-Bold-41" x="405.615234"/>
       <use xlink:href="#Helvetica-Bold-4c" x="477.832031"/>
       <use xlink:href="#Helvetica-Bold-5f" x="538.916016"/>
       <use xlink:href="#Helvetica-Bold-46" x="594.53125"/>
       <use xlink:href="#Helvetica-Bold-4c" x="655.615234"/>
       <use xlink:href="#Helvetica-Bold-41" x="716.699219"/>
       <use xlink:href="#Helvetica-Bold-54" x="788.916016"/>
       <use xlink:href="#Helvetica-Bold-4e" x="850"/>
       <use xlink:href="#Helvetica-Bold-45" x="922.216797"/>
       <use xlink:href="#Helvetica-Bold-53" x="988.916016"/>
       <use xlink:href="#Helvetica-Bold-53" x="1055.615234"/>
      </g>
     </g>
    </g>
    <g id="ytick_6">
     <g id="text_12">
      <!-- SPECTRAL_SPREAD -->
      <g transform="translate(46.044375 462.506696) scale(0.12 -0.12)">
       <use xlink:href="#Helvetica-Bold-53"/>
       <use xlink:href="#Helvetica-Bold-50" x="66.699219"/>
       <use xlink:href="#Helvetica-Bold-45" x="133.398438"/>
       <use xlink:href="#Helvetica-Bold-43" x="200.097656"/>
       <use xlink:href="#Helvetica-Bold-54" x="272.314453"/>
       <use xlink:href="#Helvetica-Bold-52" x="333.398438"/>
       <use xlink:href="#Helvetica-Bold-41" x="405.615234"/>
       <use xlink:href="#Helvetica-Bold-4c" x="477.832031"/>
       <use xlink:href="#Helvetica-Bold-5f" x="538.916016"/>
       <use xlink:href="#Helvetica-Bold-53" x="594.53125"/>
       <use xlink:href="#Helvetica-Bold-50" x="661.230469"/>
       <use xlink:href="#Helvetica-Bold-52" x="727.929688"/>
       <use xlink:href="#Helvetica-Bold-45" x="800.146484"/>
       <use xlink:href="#Helvetica-Bold-41" x="866.845703"/>
       <use xlink:href="#Helvetica-Bold-44" x="939.0625"/>
      </g>
     </g>
    </g>
    <g id="ytick_7">
     <g id="text_13">
      <!-- ENERGY -->
      <g transform="translate(116.720625 432.824792) scale(0.12 -0.12)">
       <defs>
        <path id="Helvetica-Bold-47" d="M 3584 3169 
Q 3475 3641 3050 3828 
Q 2813 3931 2522 3931 
Q 1966 3931 1608 3511 
Q 1250 3091 1250 2247 
Q 1250 1397 1637 1044 
Q 2025 691 2519 691 
Q 3003 691 3312 970 
Q 3622 1250 3694 1703 
L 2628 1703 
L 2628 2472 
L 4547 2472 
L 4547 0 
L 3909 0 
L 3813 575 
Q 3534 247 3313 113 
Q 2931 -122 2375 -122 
Q 1459 -122 875 513 
Q 266 1150 266 2256 
Q 266 3375 881 4050 
Q 1497 4725 2509 4725 
Q 3388 4725 3920 4279 
Q 4453 3834 4531 3169 
L 3584 3169 
z
M 2506 4725 
L 2506 4725 
z
" transform="scale(0.015625)"/>
       </defs>
       <use xlink:href="#Helvetica-Bold-45"/>
       <use xlink:href="#Helvetica-Bold-4e" x="66.699219"/>
       <use xlink:href="#Helvetica-Bold-45" x="138.916016"/>
       <use xlink:href="#Helvetica-Bold-52" x="205.615234"/>
       <use xlink:href="#Helvetica-Bold-47" x="277.832031"/>
       <use xlink:href="#Helvetica-Bold-59" x="355.615234"/>
      </g>
     </g>
    </g>
    <g id="ytick_8">
     <g id="text_14">
      <!-- FREQS_KURTOSIS -->
      <g transform="translate(57.384375 403.142887) scale(0.12 -0.12)">
       <defs>
        <path id="Helvetica-Bold-4b" d="M 503 4606 
L 1450 4606 
L 1450 2709 
L 3228 4606 
L 4472 4606 
L 2584 2709 
L 4569 0 
L 3331 0 
L 1909 2013 
L 1450 1541 
L 1450 0 
L 503 0 
L 503 4606 
z
" transform="scale(0.015625)"/>
       </defs>
       <use xlink:href="#Helvetica-Bold-46"/>
       <use xlink:href="#Helvetica-Bold-52" x="61.083984"/>
       <use xlink:href="#Helvetica-Bold-45" x="133.300781"/>
       <use xlink:href="#Helvetica-Bold-51" x="200"/>
       <use xlink:href="#Helvetica-Bold-53" x="277.783203"/>
       <use xlink:href="#Helvetica-Bold-5f" x="344.482422"/>
       <use xlink:href="#Helvetica-Bold-4b" x="400.097656"/>
       <use xlink:href="#Helvetica-Bold-55" x="472.314453"/>
       <use xlink:href="#Helvetica-Bold-52" x="544.53125"/>
       <use xlink:href="#Helvetica-Bold-54" x="616.748047"/>
       <use xlink:href="#Helvetica-Bold-4f" x="677.832031"/>
       <use xlink:href="#Helvetica-Bold-53" x="755.615234"/>
       <use xlink:href="#Helvetica-Bold-49" x="822.314453"/>
       <use xlink:href="#Helvetica-Bold-53" x="850.097656"/>
      </g>
     </g>
    </g>
    <g id="ytick_9">
     <g id="text_15">
      <!-- SPECTRAL_BANDWIDTH -->
      <g transform="translate(22.06875 373.460982) scale(0.12 -0.12)">
       <defs>
        <path id="Helvetica-Bold-42" d="M 1422 3806 
L 1422 2791 
L 2553 2791 
Q 2856 2791 3045 2905 
Q 3234 3019 3234 3309 
Q 3234 3631 2984 3734 
Q 2769 3806 2434 3806 
L 1422 3806 
z
M 1422 2028 
L 1422 800 
L 2553 800 
Q 2856 800 3025 881 
Q 3331 1031 3331 1456 
Q 3331 1816 3034 1950 
Q 2869 2025 2569 2028 
L 1422 2028 
z
M 2741 4606 
Q 3588 4594 3941 4116 
Q 4153 3822 4153 3413 
Q 4153 2991 3941 2734 
Q 3822 2591 3591 2472 
Q 3944 2344 4123 2066 
Q 4303 1788 4303 1391 
Q 4303 981 4097 656 
Q 3966 441 3769 294 
Q 3547 125 3245 62 
Q 2944 0 2591 0 
L 503 0 
L 503 4606 
L 2741 4606 
z
" transform="scale(0.015625)"/>
        <path id="Helvetica-Bold-57" d="M 1116 4606 
L 1725 1969 
L 1856 1234 
L 1991 1953 
L 2509 4606 
L 3525 4606 
L 4072 1969 
L 4213 1234 
L 4353 1941 
L 4969 4606 
L 5947 4606 
L 4650 0 
L 3731 0 
L 3175 2694 
L 3013 3584 
L 2850 2694 
L 2294 0 
L 1400 0 
L 94 4606 
L 1116 4606 
z
" transform="scale(0.015625)"/>
        <path id="Helvetica-Bold-48" d="M 481 0 
L 481 4606 
L 1434 4606 
L 1434 2850 
L 3234 2850 
L 3234 4606 
L 4191 4606 
L 4191 0 
L 3234 0 
L 3234 2056 
L 1434 2056 
L 1434 0 
L 481 0 
z
" transform="scale(0.015625)"/>
       </defs>
       <use xlink:href="#Helvetica-Bold-53"/>
       <use xlink:href="#Helvetica-Bold-50" x="66.699219"/>
       <use xlink:href="#Helvetica-Bold-45" x="133.398438"/>
       <use xlink:href="#Helvetica-Bold-43" x="200.097656"/>
       <use xlink:href="#Helvetica-Bold-54" x="272.314453"/>
       <use xlink:href="#Helvetica-Bold-52" x="333.398438"/>
       <use xlink:href="#Helvetica-Bold-41" x="405.615234"/>
       <use xlink:href="#Helvetica-Bold-4c" x="477.832031"/>
       <use xlink:href="#Helvetica-Bold-5f" x="538.916016"/>
       <use xlink:href="#Helvetica-Bold-42" x="594.53125"/>
       <use xlink:href="#Helvetica-Bold-41" x="666.748047"/>
       <use xlink:href="#Helvetica-Bold-4e" x="738.964844"/>
       <use xlink:href="#Helvetica-Bold-44" x="811.181641"/>
       <use xlink:href="#Helvetica-Bold-57" x="883.398438"/>
       <use xlink:href="#Helvetica-Bold-49" x="977.783203"/>
       <use xlink:href="#Helvetica-Bold-44" x="1005.566406"/>
       <use xlink:href="#Helvetica-Bold-54" x="1077.783203"/>
       <use xlink:href="#Helvetica-Bold-48" x="1138.867188"/>
      </g>
     </g>
    </g>
    <g id="ytick_10">
     <g id="text_16">
      <!-- SPECTRAL_CENTROID -->
      <g transform="translate(33.39 343.779077) scale(0.12 -0.12)">
       <use xlink:href="#Helvetica-Bold-53"/>
       <use xlink:href="#Helvetica-Bold-50" x="66.699219"/>
       <use xlink:href="#Helvetica-Bold-45" x="133.398438"/>
       <use xlink:href="#Helvetica-Bold-43" x="200.097656"/>
       <use xlink:href="#Helvetica-Bold-54" x="272.314453"/>
       <use xlink:href="#Helvetica-Bold-52" x="333.398438"/>
       <use xlink:href="#Helvetica-Bold-41" x="405.615234"/>
       <use xlink:href="#Helvetica-Bold-4c" x="477.832031"/>
       <use xlink:href="#Helvetica-Bold-5f" x="538.916016"/>
       <use xlink:href="#Helvetica-Bold-43" x="594.53125"/>
       <use xlink:href="#Helvetica-Bold-45" x="666.748047"/>
       <use xlink:href="#Helvetica-Bold-4e" x="733.447266"/>
       <use xlink:href="#Helvetica-Bold-54" x="805.664062"/>
       <use xlink:href="#Helvetica-Bold-52" x="866.748047"/>
       <use xlink:href="#Helvetica-Bold-4f" x="938.964844"/>
       <use xlink:href="#Helvetica-Bold-49" x="1016.748047"/>
       <use xlink:href="#Helvetica-Bold-44" x="1044.53125"/>
      </g>
     </g>
    </g>
    <g id="ytick_11">
     <g id="text_17">
      <!-- FREQS_SKEWNESS -->
      <g transform="translate(50.7075 314.097173) scale(0.12 -0.12)">
       <use xlink:href="#Helvetica-Bold-46"/>
       <use xlink:href="#Helvetica-Bold-52" x="61.083984"/>
       <use xlink:href="#Helvetica-Bold-45" x="133.300781"/>
       <use xlink:href="#Helvetica-Bold-51" x="200"/>
       <use xlink:href="#Helvetica-Bold-53" x="277.783203"/>
       <use xlink:href="#Helvetica-Bold-5f" x="344.482422"/>
       <use xlink:href="#Helvetica-Bold-53" x="400.097656"/>
       <use xlink:href="#Helvetica-Bold-4b" x="466.796875"/>
       <use xlink:href="#Helvetica-Bold-45" x="539.013672"/>
       <use xlink:href="#Helvetica-Bold-57" x="605.712891"/>
       <use xlink:href="#Helvetica-Bold-4e" x="700.097656"/>
       <use xlink:href="#Helvetica-Bold-45" x="772.314453"/>
       <use xlink:href="#Helvetica-Bold-53" x="839.013672"/>
       <use xlink:href="#Helvetica-Bold-53" x="905.712891"/>
      </g>
     </g>
    </g>
    <g id="ytick_12">
     <g id="text_18">
      <!-- PEAK_FREQUENCY -->
      <g transform="translate(52.044375 284.415268) scale(0.12 -0.12)">
       <use xlink:href="#Helvetica-Bold-50"/>
       <use xlink:href="#Helvetica-Bold-45" x="66.699219"/>
       <use xlink:href="#Helvetica-Bold-41" x="133.398438"/>
       <use xlink:href="#Helvetica-Bold-4b" x="205.615234"/>
       <use xlink:href="#Helvetica-Bold-5f" x="277.832031"/>
       <use xlink:href="#Helvetica-Bold-46" x="333.447266"/>
       <use xlink:href="#Helvetica-Bold-52" x="394.53125"/>
       <use xlink:href="#Helvetica-Bold-45" x="466.748047"/>
       <use xlink:href="#Helvetica-Bold-51" x="533.447266"/>
       <use xlink:href="#Helvetica-Bold-55" x="611.230469"/>
       <use xlink:href="#Helvetica-Bold-45" x="683.447266"/>
       <use xlink:href="#Helvetica-Bold-4e" x="750.146484"/>
       <use xlink:href="#Helvetica-Bold-43" x="822.363281"/>
       <use xlink:href="#Helvetica-Bold-59" x="894.580078"/>
      </g>
     </g>
    </g>
    <g id="ytick_13">
     <g id="text_19">
      <!-- AMPLITUDES_CUM_SUM -->
      <g transform="translate(22.059375 254.733363) scale(0.12 -0.12)">
       <use xlink:href="#Helvetica-Bold-41"/>
       <use xlink:href="#Helvetica-Bold-4d" x="72.216797"/>
       <use xlink:href="#Helvetica-Bold-50" x="155.517578"/>
       <use xlink:href="#Helvetica-Bold-4c" x="222.216797"/>
       <use xlink:href="#Helvetica-Bold-49" x="283.300781"/>
       <use xlink:href="#Helvetica-Bold-54" x="311.083984"/>
       <use xlink:href="#Helvetica-Bold-55" x="372.167969"/>
       <use xlink:href="#Helvetica-Bold-44" x="444.384766"/>
       <use xlink:href="#Helvetica-Bold-45" x="516.601562"/>
       <use xlink:href="#Helvetica-Bold-53" x="583.300781"/>
       <use xlink:href="#Helvetica-Bold-5f" x="650"/>
       <use xlink:href="#Helvetica-Bold-43" x="705.615234"/>
       <use xlink:href="#Helvetica-Bold-55" x="777.832031"/>
       <use xlink:href="#Helvetica-Bold-4d" x="850.048828"/>
       <use xlink:href="#Helvetica-Bold-5f" x="933.349609"/>
       <use xlink:href="#Helvetica-Bold-53" x="988.964844"/>
       <use xlink:href="#Helvetica-Bold-55" x="1055.664062"/>
       <use xlink:href="#Helvetica-Bold-4d" x="1127.880859"/>
      </g>
     </g>
    </g>
    <g id="ytick_14">
     <g id="text_20">
      <!-- SPECTRAL_ROLLOFF -->
      <g transform="translate(39.405 225.051458) scale(0.12 -0.12)">
       <use xlink:href="#Helvetica-Bold-53"/>
       <use xlink:href="#Helvetica-Bold-50" x="66.699219"/>
       <use xlink:href="#Helvetica-Bold-45" x="133.398438"/>
       <use xlink:href="#Helvetica-Bold-43" x="200.097656"/>
       <use xlink:href="#Helvetica-Bold-54" x="272.314453"/>
       <use xlink:href="#Helvetica-Bold-52" x="333.398438"/>
       <use xlink:href="#Helvetica-Bold-41" x="405.615234"/>
       <use xlink:href="#Helvetica-Bold-4c" x="477.832031"/>
       <use xlink:href="#Helvetica-Bold-5f" x="538.916016"/>
       <use xlink:href="#Helvetica-Bold-52" x="594.53125"/>
       <use xlink:href="#Helvetica-Bold-4f" x="666.748047"/>
       <use xlink:href="#Helvetica-Bold-4c" x="744.53125"/>
       <use xlink:href="#Helvetica-Bold-4c" x="805.615234"/>
       <use xlink:href="#Helvetica-Bold-4f" x="866.699219"/>
       <use xlink:href="#Helvetica-Bold-46" x="944.482422"/>
       <use xlink:href="#Helvetica-Bold-46" x="1005.566406"/>
      </g>
     </g>
    </g>
    <g id="ytick_15">
     <g id="text_21">
      <!-- SPECTRUM -->
      <g transform="translate(100.063125 195.369554) scale(0.12 -0.12)">
       <use xlink:href="#Helvetica-Bold-53"/>
       <use xlink:href="#Helvetica-Bold-50" x="66.699219"/>
       <use xlink:href="#Helvetica-Bold-45" x="133.398438"/>
       <use xlink:href="#Helvetica-Bold-43" x="200.097656"/>
       <use xlink:href="#Helvetica-Bold-54" x="272.314453"/>
       <use xlink:href="#Helvetica-Bold-52" x="333.398438"/>
       <use xlink:href="#Helvetica-Bold-55" x="405.615234"/>
       <use xlink:href="#Helvetica-Bold-4d" x="477.832031"/>
      </g>
     </g>
    </g>
    <g id="ytick_16">
     <g id="text_22">
      <!-- IQR -->
      <g transform="translate(146.06625 165.687649) scale(0.12 -0.12)">
       <use xlink:href="#Helvetica-Bold-49"/>
       <use xlink:href="#Helvetica-Bold-51" x="27.783203"/>
       <use xlink:href="#Helvetica-Bold-52" x="105.566406"/>
      </g>
     </g>
    </g>
    <g id="ytick_17">
     <g id="text_23">
      <!-- DURATION -->
      <g transform="translate(104.071875 136.005744) scale(0.12 -0.12)">
       <use xlink:href="#Helvetica-Bold-44"/>
       <use xlink:href="#Helvetica-Bold-55" x="72.216797"/>
       <use xlink:href="#Helvetica-Bold-52" x="144.433594"/>
       <use xlink:href="#Helvetica-Bold-41" x="216.650391"/>
       <use xlink:href="#Helvetica-Bold-54" x="288.867188"/>
       <use xlink:href="#Helvetica-Bold-49" x="349.951172"/>
       <use xlink:href="#Helvetica-Bold-4f" x="377.734375"/>
       <use xlink:href="#Helvetica-Bold-4e" x="455.517578"/>
      </g>
     </g>
    </g>
    <g id="ytick_18">
     <g id="text_24">
      <!-- SPECTRAL_ENTROPY -->
      <g transform="translate(38.0475 106.323839) scale(0.12 -0.12)">
       <use xlink:href="#Helvetica-Bold-53"/>
       <use xlink:href="#Helvetica-Bold-50" x="66.699219"/>
       <use xlink:href="#Helvetica-Bold-45" x="133.398438"/>
       <use xlink:href="#Helvetica-Bold-43" x="200.097656"/>
       <use xlink:href="#Helvetica-Bold-54" x="272.314453"/>
       <use xlink:href="#Helvetica-Bold-52" x="333.398438"/>
       <use xlink:href="#Helvetica-Bold-41" x="405.615234"/>
       <use xlink:href="#Helvetica-Bold-4c" x="477.832031"/>
       <use xlink:href="#Helvetica-Bold-5f" x="538.916016"/>
       <use xlink:href="#Helvetica-Bold-45" x="594.53125"/>
       <use xlink:href="#Helvetica-Bold-4e" x="661.230469"/>
       <use xlink:href="#Helvetica-Bold-54" x="733.447266"/>
       <use xlink:href="#Helvetica-Bold-52" x="794.53125"/>
       <use xlink:href="#Helvetica-Bold-4f" x="866.748047"/>
       <use xlink:href="#Helvetica-Bold-50" x="944.53125"/>
       <use xlink:href="#Helvetica-Bold-59" x="1011.230469"/>
      </g>
     </g>
    </g>
    <g id="ytick_19">
     <g id="text_25">
      <!-- FREQUENCIES_STD -->
      <g transform="translate(50.0475 76.641935) scale(0.12 -0.12)">
       <use xlink:href="#Helvetica-Bold-46"/>
       <use xlink:href="#Helvetica-Bold-52" x="61.083984"/>
       <use xlink:href="#Helvetica-Bold-45" x="133.300781"/>
       <use xlink:href="#Helvetica-Bold-51" x="200"/>
       <use xlink:href="#Helvetica-Bold-55" x="277.783203"/>
       <use xlink:href="#Helvetica-Bold-45" x="350"/>
       <use xlink:href="#Helvetica-Bold-4e" x="416.699219"/>
       <use xlink:href="#Helvetica-Bold-43" x="488.916016"/>
       <use xlink:href="#Helvetica-Bold-49" x="561.132812"/>
       <use xlink:href="#Helvetica-Bold-45" x="588.916016"/>
       <use xlink:href="#Helvetica-Bold-53" x="655.615234"/>
       <use xlink:href="#Helvetica-Bold-5f" x="722.314453"/>
       <use xlink:href="#Helvetica-Bold-53" x="777.929688"/>
       <use xlink:href="#Helvetica-Bold-54" x="844.628906"/>
       <use xlink:href="#Helvetica-Bold-44" x="905.712891"/>
      </g>
     </g>
    </g>
    <g id="ytick_20">
     <g id="text_26">
      <!-- MEAN_FREQUENCY -->
      <g transform="translate(50.053125 46.96003) scale(0.12 -0.12)">
       <use xlink:href="#Helvetica-Bold-4d"/>
       <use xlink:href="#Helvetica-Bold-45" x="83.300781"/>
       <use xlink:href="#Helvetica-Bold-41" x="150"/>
       <use xlink:href="#Helvetica-Bold-4e" x="222.216797"/>
       <use xlink:href="#Helvetica-Bold-5f" x="294.433594"/>
       <use xlink:href="#Helvetica-Bold-46" x="350.048828"/>
       <use xlink:href="#Helvetica-Bold-52" x="411.132812"/>
       <use xlink:href="#Helvetica-Bold-45" x="483.349609"/>
       <use xlink:href="#Helvetica-Bold-51" x="550.048828"/>
       <use xlink:href="#Helvetica-Bold-55" x="627.832031"/>
       <use xlink:href="#Helvetica-Bold-45" x="700.048828"/>
       <use xlink:href="#Helvetica-Bold-4e" x="766.748047"/>
       <use xlink:href="#Helvetica-Bold-43" x="838.964844"/>
       <use xlink:href="#Helvetica-Bold-59" x="911.181641"/>
      </g>
     </g>
    </g>
   </g>
   <g id="patch_43">
    <path d="M 174.4 636.28 
L 563.04 636.28 
" style="fill: none; stroke: #000000; stroke-width: 0.8; stroke-linejoin: miter; stroke-linecap: square"/>
   </g>
   <g id="legend_1">
    <g id="patch_44">
     <path d="M 185.2 605.370625 
L 209.2 605.370625 
L 209.2 596.970625 
L 185.2 596.970625 
z
" style="fill: #008bfb"/>
    </g>
    <g id="text_27">
     <!-- REAL -->
     <g transform="translate(218.8 605.370625) scale(0.12 -0.12)">
      <defs>
       <path id="DejaVuSans-52" d="M 2841 2188 
Q 3044 2119 3236 1894 
Q 3428 1669 3622 1275 
L 4263 0 
L 3584 0 
L 2988 1197 
Q 2756 1666 2539 1819 
Q 2322 1972 1947 1972 
L 1259 1972 
L 1259 0 
L 628 0 
L 628 4666 
L 2053 4666 
Q 2853 4666 3247 4331 
Q 3641 3997 3641 3322 
Q 3641 2881 3436 2590 
Q 3231 2300 2841 2188 
z
M 1259 4147 
L 1259 2491 
L 2053 2491 
Q 2509 2491 2742 2702 
Q 2975 2913 2975 3322 
Q 2975 3731 2742 3939 
Q 2509 4147 2053 4147 
L 1259 4147 
z
" transform="scale(0.015625)"/>
       <path id="DejaVuSans-45" d="M 628 4666 
L 3578 4666 
L 3578 4134 
L 1259 4134 
L 1259 2753 
L 3481 2753 
L 3481 2222 
L 1259 2222 
L 1259 531 
L 3634 531 
L 3634 0 
L 628 0 
L 628 4666 
z
" transform="scale(0.015625)"/>
       <path id="DejaVuSans-41" d="M 2188 4044 
L 1331 1722 
L 3047 1722 
L 2188 4044 
z
M 1831 4666 
L 2547 4666 
L 4325 0 
L 3669 0 
L 3244 1197 
L 1141 1197 
L 716 0 
L 50 0 
L 1831 4666 
z
" transform="scale(0.015625)"/>
       <path id="DejaVuSans-4c" d="M 628 4666 
L 1259 4666 
L 1259 531 
L 3531 531 
L 3531 0 
L 628 0 
L 628 4666 
z
" transform="scale(0.015625)"/>
      </defs>
      <use xlink:href="#DejaVuSans-52"/>
      <use xlink:href="#DejaVuSans-45" x="69.482422"/>
      <use xlink:href="#DejaVuSans-41" x="132.666016"/>
      <use xlink:href="#DejaVuSans-4c" x="201.074219"/>
     </g>
    </g>
    <g id="patch_45">
     <path d="M 185.2 622.984375 
L 209.2 622.984375 
L 209.2 614.584375 
L 185.2 614.584375 
z
" style="fill: #ff004f"/>
    </g>
    <g id="text_28">
     <!-- FAKE -->
     <g transform="translate(218.8 622.984375) scale(0.12 -0.12)">
      <defs>
       <path id="DejaVuSans-46" d="M 628 4666 
L 3309 4666 
L 3309 4134 
L 1259 4134 
L 1259 2759 
L 3109 2759 
L 3109 2228 
L 1259 2228 
L 1259 0 
L 628 0 
L 628 4666 
z
" transform="scale(0.015625)"/>
       <path id="DejaVuSans-4b" d="M 628 4666 
L 1259 4666 
L 1259 2694 
L 3353 4666 
L 4166 4666 
L 1850 2491 
L 4331 0 
L 3500 0 
L 1259 2247 
L 1259 0 
L 628 0 
L 628 4666 
z
" transform="scale(0.015625)"/>
      </defs>
      <use xlink:href="#DejaVuSans-46"/>
      <use xlink:href="#DejaVuSans-41" x="48.394531"/>
      <use xlink:href="#DejaVuSans-4b" x="116.802734"/>
      <use xlink:href="#DejaVuSans-45" x="182.378906"/>
     </g>
    </g>
   </g>
  </g>
 </g>
 <defs>
  <clipPath id="p4fe5471366">
   <rect x="174.4" y="12.96" width="388.64" height="623.32"/>
  </clipPath>
 </defs>
</svg>
